<mxfile host="app.diagrams.net" modified="2023-07-31T08:31:42.688Z" agent="Mozilla/5.0 (X11; Linux x86_64; rv:109.0) Gecko/20100101 Firefox/115.0" version="21.6.6" etag="ZtVIpDtadHKlqL0tGZVk" type="github">
  <diagram name="Seite-1" id="VEH_2qXT-6uTrEfqsYG4">
    <mxGraphModel>
      <root>
        <mxCell id="0" />
        <mxCell id="1" parent="0" />
      </root>
    </mxGraphModel>
  </diagram>
</mxfile>
